REM DIRINDEX 1\2,1\4,1\5,1\6,1\7,1\3\8,1\3\9,1\3\10
REM DIRNAME cjc113,folder01,folder02,folder03,folder04,folder05,folder06,folder07,folder08,folder09
TITLE ""
FILE "DB4500_5th_6C_25.mp3" MP3
  TRACK 01 AUDIO
    TITLE "8:cjc113_4292"
    INDEX 01 00:00:00
  TRACK 02 AUDIO
    TITLE "0:"
    INDEX 01 00:01:11
  TRACK 03 AUDIO
    TITLE "9:cjc113_4293"
    INDEX 01 00:01:21
  TRACK 04 AUDIO
    TITLE "0:"
    INDEX 01 00:02:49
  TRACK 05 AUDIO
    TITLE "10:cjc113_4294"
    INDEX 01 00:02:59
  TRACK 06 AUDIO
    TITLE "0:"
    INDEX 01 00:05:01
  TRACK 07 AUDIO
    TITLE "8:cjc113_4295"
    INDEX 01 00:05:32
  TRACK 08 AUDIO
    TITLE "0:"
    INDEX 01 00:06:41
  TRACK 09 AUDIO
    TITLE "9:cjc113_4296"
    INDEX 01 00:06:49
  TRACK 10 AUDIO
    TITLE "0:"
    INDEX 01 00:08:03
  TRACK 11 AUDIO
    TITLE "10:cjc113_4297"
    INDEX 01 00:08:09
  TRACK 12 AUDIO
    TITLE "0:"
    INDEX 01 00:11:25
  TRACK 13 AUDIO
    TITLE "8:cjc113_4298"
    INDEX 01 00:11:58
  TRACK 14 AUDIO
    TITLE "0:"
    INDEX 01 00:13:00
  TRACK 15 AUDIO
    TITLE "9:cjc113_4299"
    INDEX 01 00:13:06
  TRACK 16 AUDIO
    TITLE "0:"
    INDEX 01 00:14:51
  TRACK 17 AUDIO
    TITLE "10:cjc113_4300"
    INDEX 01 00:14:58
  TRACK 18 AUDIO
    TITLE "0:"
    INDEX 01 00:17:63
  TRACK 19 AUDIO
    TITLE "8:cjc113_4301"
    INDEX 01 00:18:21
  TRACK 20 AUDIO
    TITLE "0:"
    INDEX 01 00:19:36
  TRACK 21 AUDIO
    TITLE "9:cjc113_4302"
    INDEX 01 00:19:46
  TRACK 22 AUDIO
    TITLE "0:"
    INDEX 01 00:20:65
  TRACK 23 AUDIO
    TITLE "10:cjc113_4303"
    INDEX 01 00:20:73
  TRACK 24 AUDIO
    TITLE "0:"
    INDEX 01 00:24:16
  TRACK 25 AUDIO
    TITLE "8:cjc113_4304"
    INDEX 01 00:24:49
  TRACK 26 AUDIO
    TITLE "0:"
    INDEX 01 00:25:62
  TRACK 27 AUDIO
    TITLE "9:cjc113_4305"
    INDEX 01 00:25:70
  TRACK 28 AUDIO
    TITLE "0:"
    INDEX 01 00:27:20
  TRACK 29 AUDIO
    TITLE "10:cjc113_4306"
    INDEX 01 00:27:30
  TRACK 30 AUDIO
    TITLE "0:"
    INDEX 01 00:29:62
  TRACK 31 AUDIO
    TITLE "8:cjc113_4307"
    INDEX 01 00:30:20
  TRACK 32 AUDIO
    TITLE "0:"
    INDEX 01 00:31:20
  TRACK 33 AUDIO
    TITLE "9:cjc113_4308"
    INDEX 01 00:31:29
  TRACK 34 AUDIO
    TITLE "0:"
    INDEX 01 00:32:60
  TRACK 35 AUDIO
    TITLE "10:cjc113_4309"
    INDEX 01 00:32:68
  TRACK 36 AUDIO
    TITLE "0:"
    INDEX 01 00:36:05
  TRACK 37 AUDIO
    TITLE "8:cjc113_4310"
    INDEX 01 00:36:36
  TRACK 38 AUDIO
    TITLE "0:"
    INDEX 01 00:37:61
  TRACK 39 AUDIO
    TITLE "9:cjc113_4311"
    INDEX 01 00:37:69
  TRACK 40 AUDIO
    TITLE "0:"
    INDEX 01 00:39:29
  TRACK 41 AUDIO
    TITLE "10:cjc113_4312"
    INDEX 01 00:39:37
  TRACK 42 AUDIO
    TITLE "0:"
    INDEX 01 00:42:53
  TRACK 43 AUDIO
    TITLE "8:cjc113_4313"
    INDEX 01 00:43:11
  TRACK 44 AUDIO
    TITLE "0:"
    INDEX 01 00:44:18
  TRACK 45 AUDIO
    TITLE "9:cjc113_4314"
    INDEX 01 00:44:28
  TRACK 46 AUDIO
    TITLE "0:"
    INDEX 01 00:45:47
  TRACK 47 AUDIO
    TITLE "10:cjc113_4315"
    INDEX 01 00:45:57
  TRACK 48 AUDIO
    TITLE "0:"
    INDEX 01 00:50:19
  TRACK 49 AUDIO
    TITLE "8:cjc113_4316"
    INDEX 01 00:50:50
  TRACK 50 AUDIO
    TITLE "0:"
    INDEX 01 00:51:73
  TRACK 51 AUDIO
    TITLE "9:cjc113_4317"
    INDEX 01 00:52:04
  TRACK 52 AUDIO
    TITLE "0:"
    INDEX 01 00:53:25
  TRACK 53 AUDIO
    TITLE "10:cjc113_4318"
    INDEX 01 00:53:35
  TRACK 54 AUDIO
    TITLE "0:"
    INDEX 01 00:58:03
  TRACK 55 AUDIO
    TITLE "8:cjc113_4319"
    INDEX 01 00:58:34
  TRACK 56 AUDIO
    TITLE "0:"
    INDEX 01 00:59:57
  TRACK 57 AUDIO
    TITLE "9:cjc113_4320"
    INDEX 01 00:59:65
  TRACK 58 AUDIO
    TITLE "0:"
    INDEX 01 01:01:07
  TRACK 59 AUDIO
    TITLE "10:cjc113_4321"
    INDEX 01 01:01:13
  TRACK 60 AUDIO
    TITLE "0:"
    INDEX 01 01:04:62
  TRACK 61 AUDIO
    TITLE "8:cjc113_4322"
    INDEX 01 01:05:21
  TRACK 62 AUDIO
    TITLE "0:"
    INDEX 01 01:06:34
  TRACK 63 AUDIO
    TITLE "9:cjc113_4323"
    INDEX 01 01:06:43
  TRACK 64 AUDIO
    TITLE "0:"
    INDEX 01 01:07:72
  TRACK 65 AUDIO
    TITLE "10:cjc113_4324"
    INDEX 01 01:08:03
  TRACK 66 AUDIO
    TITLE "0:"
    INDEX 01 01:11:52
  TRACK 67 AUDIO
    TITLE "8:cjc113_4325"
    INDEX 01 01:12:07
  TRACK 68 AUDIO
    TITLE "0:"
    INDEX 01 01:13:18
  TRACK 69 AUDIO
    TITLE "9:cjc113_4326"
    INDEX 01 01:13:26
  TRACK 70 AUDIO
    TITLE "0:"
    INDEX 01 01:14:37
  TRACK 71 AUDIO
    TITLE "10:cjc113_4327"
    INDEX 01 01:14:43
  TRACK 72 AUDIO
    TITLE "0:"
    INDEX 01 01:18:06
  TRACK 73 AUDIO
    TITLE "8:cjc113_4328"
    INDEX 01 01:18:37
  TRACK 74 AUDIO
    TITLE "0:"
    INDEX 01 01:19:50
  TRACK 75 AUDIO
    TITLE "9:cjc113_4329"
    INDEX 01 01:19:58
  TRACK 76 AUDIO
    TITLE "0:"
    INDEX 01 01:23:48
  TRACK 77 AUDIO
    TITLE "10:cjc113_4330"
    INDEX 01 01:23:58
  TRACK 78 AUDIO
    TITLE "0:"
    INDEX 01 01:27:12
